<svg viewBox="0 0 128 128" xmlns="http://www.w3.org/2000/svg"><path fill="#F05032" d="M125 61.4L66.6 3c-1.8-1.8-4.8-1.8-6.6 0L49 14l11.1 11.1c2 1.4 3 3.6 2.8 5.8-.2 2.2-1.6 4.1-3.6 4.9-2 .8-4.4.5-6.1-.8l-10.8-10.8V49c1.6.5 2.9 1.6 3.6 3.1s.8 3.3.1 4.7c-.7 1.4-2 2.5-3.5 3-.1 14.8-.1 26-.1 26.2 1.5.5 2.8 1.6 3.5 3s.8 3.3.1 4.7c-.7 1.5-2 2.5-3.6 3-1.5.5-3.3.3-4.7-.4s-2.5-2-3-3.6c-.5-1.5-.3-3.3.4-4.7.7-1.5 2-2.5 3.6-3V56.8c-1.5-.5-2.8-1.6-3.5-3s-.8-3.3-.1-4.7c.7-1.4 2-2.5 3.5-3V26.2l-10-10L3 61.4c-1.8 1.8-1.8 4.8 0 6.6L61.4 125c1.8 1.8 4.8 1.8 6.6 0L125 68c1.8-1.8 1.8-4.8 0-6.6z"/></svg>