<svg viewBox="0 0 128 128" xmlns="http://www.w3.org/2000/svg"><path fill="#F7DF1E" d="M1.4 1.4h125.2v125.2H1.4z"/><path d="M118.7 102.6c-.6-3.2-3.1-5.6-7.3-7.2-2.3-.9-5.4-1.3-8.8-1.3-3.6 0-6 1-7.5 2.5-1.4 1.4-2.1 3.2-2.1 5.4 0 2.2.6 4 1.9 5.3 1.2 1.3 3.4 2.4 6.4 3.4 4.5 1.5 7.8 2.6 10 3.3 2.1.7 4.1 1.7 5.9 3 1.8 1.3 3.3 3 4.5 5.1 1.2 2.1 1.8 4.7 1.8 7.9 0 4.1-1.1 7.6-3.4 10.5-2.3 2.9-5.4 5.1-9.3 6.6-3.9 1.5-8.3 2.2-13.4 2.2-6.5 0-11.8-1.4-15.8-4.2-4-2.8-6.4-7.2-7.2-13.1l11.6-1.9c.7 3.5 2 6 3.9 7.4 1.9 1.4 4.8 2.1 8.7 2.1 3 0 5.4-.5 7.1-1.6 1.7-1.1 2.5-2.6 2.5-4.5 0-1.8-.7-3.2-2-4.1-1.3-1-3.6-1.9-6.8-2.9-3.7-1.1-6.6-2-8.6-2.6-2-.6-4.1-1.5-6.1-2.6s-3.7-2.6-5.1-4.5c-1.4-1.9-2.1-4.4-2.1-7.5 0-3.6 1-6.7 3-9.4 2-2.7 4.9-4.8 8.6-6.3 3.7-1.5 7.9-2.2 12.6-2.2 5.1 0 9.5.9 13.2 2.7 3.7 1.8 6.1 5.3 7.4 10.4l-11.5 2.1zM65.4 50.1v56.5c0 7.1-1.5 12.5-4.5 16.3-3 3.8-7.7 5.7-14.1 5.7-3 0-5.7-.5-8.2-1.4-2.5-.9-4.7-2.3-6.6-4.2-1.9-1.9-3.4-4.3-4.5-7.1-1.1-2.8-1.7-6-1.7-9.7V99l11.6-.2v7.1c0 3.9.9 6.8 2.7 8.8 1.8 2 4.3 3 7.5 3 3 0 5.3-1 6.9-3 1.6-2 2.4-5.3 2.4-10V50.1h13.6z"/></svg>