<svg viewBox="0 0 128 128" xmlns="http://www.w3.org/2000/svg"><path fill="#339933" d="M117.1 32.5L67.4 3.8c-2.1-1.2-4.7-1.2-6.8 0L10.9 32.5c-2.1 1.2-3.4 3.5-3.4 5.9v57.4c0 2.4 1.3 4.7 3.4 5.9l49.7 28.7c2.1 1.2 4.7 1.2 6.8 0l49.7-28.7c2.1-1.2 3.4-3.5 3.4-5.9V38.4c.1-2.4-1.2-4.7-3.4-5.9zM64 109.1c-24.9 0-45.1-20.2-45.1-45.1S39.1 18.9 64 18.9s45.1 20.2 45.1 45.1-20.2 45.1-45.1 45.1z"/><path fill="#339933" d="M82.5 45.8l-1.9-1.1c-.8-.5-1.9-.2-2.4.6l-8.7 14.1c-.2.3-.5.5-.9.5s-.7-.2-.9-.5l-8.7-14.1c-.5-.8-1.6-1.1-2.4-.6l-1.9 1.1c-.8.5-1.1 1.6-.6 2.4l11 17.8c.5.8.5 1.8 0 2.6l-11 17.8c-.5.8-.2 1.9.6 2.4l1.9 1.1c.8.5 1.9.2 2.4-.6l8.7-14.1c.2-.3.5-.5.9-.5s.7.2.9.5l8.7 14.1c.5.8 1.6 1.1 2.4.6l1.9-1.1c.8-.5 1.1-1.6.6-2.4l-11-17.8c-.5-.8-.5-1.8 0-2.6l11-17.8c.6-.8.3-1.9-.5-2.4z"/></svg>