<svg viewBox="0 0 128 128" xmlns="http://www.w3.org/2000/svg"><path fill="#3776AB" d="M64 12.3c-15.8 0-14.8 6.8-14.8 6.8l.1 7.1h15v2.1H44.1c-11.4 0-16.1 7.3-16.1 16.2 0 8.9 4.6 15.6 16.1 15.6h9.6v-13.3c0-7.7 6.4-14.1 14.1-14.1H77V26c0-13.7-13-13.7-13-13.7zm-6.6 5.8a2.5 2.5 0 110 5 2.5 2.5 0 010-5z"/><path fill="#FFD343" d="M64 115.7c15.8 0 14.8-6.8 14.8-6.8l-.1-7.1h-15V99.7h20.2c11.4 0 16.1-7.3 16.1-16.2 0-8.9-4.6-15.6-16.1-15.6H69.3v13.3c0 7.7-6.4 14.1-14.1 14.1H44.1c11.4 0 11.4 11.4 11.4 11.4s.5 9 8.5 9zm6.6-5.8a2.5 2.5 0 110-5 2.5 2.5 0 010-5z"/></svg>