<svg viewBox="0 0 128 128" xmlns="http://www.w3.org/2000/svg"><path fill="#F7931E" d="M106.8 51.2c-5.4-8.7-14.7-14.6-25.4-16.1 1.6-5.8 1.4-12.1-.9-17.9-3.9-9.8-12.8-16-22.7-17.1-1.3-.1-2.6-.2-3.8-.2-12.6 0-23.7 7.7-27.9 19.8-3 8.6-1.7 17.8 3.5 25.4-8.7 5.4-14.6 14.7-16.1 25.4-5.8-1.6-12.1-1.4-17.9.9-9.8 3.9-16 12.8-17.1 22.7-.1 1.3-.2 2.6-.2 3.8 0 12.6 7.7 23.7 19.8 27.9 8.6 3 17.8 1.7 25.4-3.5 5.4 8.7 14.7 14.6 25.4 16.1-1.6 5.8-1.4 12.1.9 17.9 3.9 9.8 12.8 16 22.7 17.1 1.3.1 2.6.2 3.8.2 12.6 0 23.7-7.7 27.9-19.8 3-8.6 1.7-17.8-3.5-25.4 8.7-5.4 14.6-14.7 16.1-25.4 5.8 1.6 12.1 1.4 17.9-.9 9.8-3.9 16-12.8 17.1-22.7.1-1.3.2-2.6.2-3.8 0-12.6-7.7-23.7-19.8-27.9-8.6-3-17.8-1.7-25.4 3.5z"/></svg>